# xmcd CD database file
#
# Track frame offsets:
#	150
#	13310
#	34441
#	57362
#	72773
#	102964
#	132550
#	154703
#	174654
#	189827
#
# Disc length: 2831 seconds
#
# Revision: 2
# Processed by: cddbd v1.4PL0 Copyright (c) Steve Scherf et al.
# Submitted via: CDex 1.51
#
DISCID=8a0b0d0a
DTITLE=John Lee Hooker - Mr. Lucky
DYEAR=1991
DGENRE=Blues
TTITLE0=I Want to Hug You
TTITLE1=Mr. Lucky - w/Robert Cray
TTITLE2=Backstabbers
TTITLE3=This Is Hip - w/Ry Cooder
TTITLE4=I Cover the Waterfront - w/Van Morrison and Booker T. Jones
TTITLE5=Highway 13 - w/John Hammond
TTITLE6=Stripped me Naked - w/Santana
TTITLE7=Susie - w/Johnny Winter
TTITLE8=Crawlin' Kingsnake - w/Kieth Richards
TTITLE9=Father was a Jockey - w/John Hammond
EXTD=YEAR: 1991
EXTT0=
EXTT1=
EXTT2=
EXTT3=
EXTT4=
EXTT5=
EXTT6=
EXTT7=
EXTT8=
EXTT9=
PLAYORDER=
